<svg version="1.2" xmlns="http://www.w3.org/2000/svg" viewBox="0 0 100 68" width="100" height="68">
	<title>1wordmark_dexcelerate-svg</title>
	<style>
		.s0 { fill: #ffffff } 
	</style>
	<g id="Layer">
		<path id="svg_10" class="s0" d="m21.8 1h-11c-1.4 0-2.3 1.3-1.9 2.6v0.2q0.1 0.2 0.2 0.4l16.3 28.8c0.4 0.6 0.4 1.4 0 2l-16.3 28.8q-0.1 0.2-0.2 0.4v0.2c-0.4 1.3 0.5 2.6 1.9 2.6h10.5c0.8 0 1.4-0.4 1.8-1l13.8-24c0.4-0.6 1-1 1.8-1h20.2c0.7 0 1.3 0.4 1.7 1l14.3 24c0.4 0.6 1 1 1.7 1h11.6c1.4 0 2.3-1.3 1.9-2.6v-0.2q-0.1-0.2-0.2-0.4l-16.8-28.8c-0.4-0.6-0.4-1.4 0-2l16.8-28.8q0.1-0.2 0.2-0.4v-0.2c0.5-1.3-0.5-2.6-1.9-2.6h-11.1c-0.7 0-1.3 0.4-1.7 0.9l-14.8 24.1c-0.4 0.6-1 1-1.7 1h-20.2c-0.7 0-1.4-0.4-1.8-1l-13.3-24c-0.4-0.6-1-1-1.8-1z"/>
	</g>
</svg>