<svg version="1.2" xmlns="http://www.w3.org/2000/svg" viewBox="0 0 1136 68" width="1136" height="68">
	<title>wordmark_dexcelerate-svg</title>
	<style>
		.s0 { fill: #ffffff } 
		.s1 { fill: #f6f6f6 } 
	</style>
	<path id="Layer" class="s0" d="m1027 2h-75c-1.1 0-2 0.9-2 2v9c0 1.1 0.9 2 2 2h29c1.1 0 2 0.9 2 2v49c0 1.1 0.9 2 2 2h9c1.1 0 2-0.9 2-2v-49c0-1.1 0.9-2 2-2h29c1.1 0 2-0.9 2-2v-9c0-1.1-0.9-2-2-2z"/>
	<path id="Layer" class="s0" d="m187 2h-76c-1.1 0-2 0.9-2 2v9.5c0 1.1 0.9 2 2 2h76c1.1 0 2-0.9 2-2v-9.5c0-1.1-0.9-2-2-2z"/>
	<path id="Layer" class="s0" d="m173 28h-62c-1.1 0-2 0.9-2 2v36c0 1.1 0.9 2 2 2h76c1.1 0 2-0.9 2-2v-9.5c0-1.1-0.9-2-2-2h-62.5c-1.1 0-2-0.9-2-2v-9c0-1.1 0.9-2 2-2h48.5c1.1 0 2-0.9 2-2v-9.5c0-1.1-0.9-2-2-2z"/>
	<path id="Layer" class="s0" d="m506 2h-76c-1.1 0-2 0.9-2 2v9.5c0 1.1 0.9 2 2 2h76c1.1 0 2-0.9 2-2v-9.5c0-1.1-0.9-2-2-2z"/>
	<path id="Layer" class="s0" d="m492 28h-62c-1.1 0-2 0.9-2 2v36c0 1.1 0.9 2 2 2h76c1.1 0 2-0.9 2-2v-9.5c0-1.1-0.9-2-2-2h-62c-1.1 0-2-0.9-2-2v-9c0-1.1 0.9-2 2-2h48c1.1 0 2-0.9 2-2v-9.5c0-1.1-0.9-2-2-2z"/>
	<path id="Layer" class="s0" d="m712 2h-76c-1.1 0-2 0.9-2 2v9.5c0 1.1 0.9 2 2 2h76c1.1 0 2-0.9 2-2v-9.5c0-1.1-0.9-2-2-2z"/>
	<path id="Layer" class="s0" d="m698 28h-62c-1.1 0-2 0.9-2 2v36c0 1.1 0.9 2 2 2h76c1.1 0 2-0.9 2-2v-9.5c0-1.1-0.9-2-2-2h-62.5c-1.1 0-2-0.9-2-2v-9c0-1.1 0.9-2 2-2h48.5c1.1 0 2-0.9 2-2v-9.5c0-1.1-0.9-2-2-2z"/>
	<path id="Layer" class="s0" d="m1134 2h-76c-1.1 0-2 0.9-2 2v9.5c0 1.1 0.9 2 2 2h76c1.1 0 2-0.9 2-2v-9.5c0-1.1-0.9-2-2-2z"/>
	<path id="Layer" class="s0" d="m1120 28h-62c-1.1 0-2 0.9-2 2v36c0 1.1 0.9 2 2 2h76c1.1 0 2-0.9 2-2v-9.5c0-1.1-0.9-2-2-2h-62.5c-1.1 0-2-0.9-2-2v-9c0-1.1 0.9-2 2-2h48.5c1.1 0 2-0.9 2-2v-9.5c0-1.1-0.9-2-2-2z"/>
	<path id="Layer" class="s0" d="m227.8 2h-11c-1.4 0-2.4 1.3-1.9 2.6v0.2q0.1 0.2 0.2 0.4l16.3 28.8c0.4 0.6 0.4 1.4 0 2l-16.3 28.8q-0.1 0.2-0.2 0.4v0.2c-0.5 1.3 0.5 2.6 1.9 2.6h10.5c0.8 0 1.4-0.4 1.8-1l13.8-24c0.4-0.6 1-1 1.8-1h20.2c0.7 0 1.3 0.4 1.7 1l14.3 24c0.4 0.6 1 1 1.7 1h11.6c1.4 0 2.4-1.3 1.9-2.6v-0.2q-0.1-0.2-0.2-0.4l-16.8-28.8c-0.4-0.6-0.4-1.4 0-2l16.8-28.8q0.1-0.2 0.2-0.4v-0.2c0.5-1.3-0.5-2.6-1.9-2.6h-11.1c-0.7 0-1.3 0.4-1.7 1l-14.8 24c-0.4 0.6-1 1-1.7 1h-20.2c-0.8 0-1.4-0.4-1.8-1l-13.3-24c-0.4-0.6-1-1-1.8-1z"/>
	<path id="Layer" class="s0" d="m0 30v36c0 1.1 0.9 2 2 2h51c14.4 0 26-11.6 26-26v-14c0-14.4-11.6-26-26-26h-51c-1.1 0-2 0.9-2 2v9.5c0 1.1 0.9 2 2 2h51.5c6.6 0 12 5.4 12 12v15c0 6.6-5.4 12-12 12h-38c-1.1 0-2-0.9-2-2v-22.5c0-1.1-0.9-2-2-2h-9.5c-1.1 0-2 0.9-2 2z"/>
	<path id="Layer" class="s1" d="m398 2h-52c-14.4 0-26 11.6-26 26v14c0 14.4 11.6 26 26 26h52c1.1 0 2-0.9 2-2v-9.5c0-1.1-0.9-2-2-2h-52c-6.6 0-12-5.4-12-12v-14.5c0-6.6 5.4-12 12-12h52c1.1 0 2-0.9 2-2v-10c0-1.1-0.9-2-2-2z"/>
	<path id="Layer" class="s0" d="m548 2h-10c-1.1 0-2 0.9-2 2v41c0 12.7 10.3 23 23 23h46c1.1 0 2-0.9 2-2v-9.5c0-1.1-0.9-2-2-2h-45c-5.5 0-10-4.5-10-10v-40.5c0-1.1-0.9-2-2-2z"/>
	<path id="Layer" class="s0" d="m802 2h-57c-1.1 0-2 0.9-2 2v9.5c0 1.1 0.9 2 2 2h57.5c3.3 0 6 2.7 6 6v0.5c0 3.3-2.7 6-6 6h-57.5c-1.1 0-2 0.9-2 2v36c0 1.1 0.9 2 2 2h9.5c1.1 0 2-0.9 2-2v-23c0-1.1 0.9-2 2-2h33.9c0.7 0 1.3 0.4 1.7 1l14.8 25c0.4 0.6 1 1 1.7 1h11.8c1.6 0 2.6-1.7 1.7-3l-13.5-22.2c-0.6-1-0.3-2.3 0.7-2.8l1-0.6c6-3.3 9.7-9.7 9.7-16.5v-0.9c0-11-9-20-20-20z"/>
	<path id="Layer" class="s0" d="m888.6 17.1l-25 49.8c-0.4 0.7-1.1 1.1-1.8 1.1h-12.5c-1.5 0-2.5-1.6-1.8-2.9l28.5-54.5c7.1-13.7 26.7-13.6 33.7 0.1l27.8 54.4c0.7 1.3-0.3 2.9-1.8 2.9h-10c-0.7 0-1.4-0.4-1.8-1.1l-26.4-49.8c-1.9-3.6-7-3.6-8.9 0z"/>
</svg>