<svg xmlns="http://www.w3.org/2000/svg" viewBox="0 0 18 18">
  <g clip-path="url(#a)">
    <path fill="url(#b)" d="M0 0h18v18H0V0Z"/>
    <path fill="#fff" fill-rule="evenodd" d="M7.726 3.252A.424.424 0 0 1 8.12 3h1.76a.423.423 0 0 1 .394.25c.064.133.012.285.056.422a.627.627 0 0 0 .353.402l.603.25a.63.63 0 0 0 .56-.043c.11-.064.177-.185.296-.237a.42.42 0 0 1 .47.084c.43.432.866.859 1.291 1.296a.42.42 0 0 1 .042.456c-.056.108-.167.172-.227.277a.63.63 0 0 0-.038.568l.242.583a.628.628 0 0 0 .403.362c.134.044.283-.004.414.054a.422.422 0 0 1 .26.392v1.76a.424.424 0 0 1-.25.4c-.133.063-.285.013-.422.056a.627.627 0 0 0-.401.353l-.25.602a.63.63 0 0 0 .038.554c.065.117.194.185.245.31a.419.419 0 0 1-.087.463c-.145.144-.287.291-.435.433-.825-.833-1.658-1.658-2.484-2.489-.173-.199-.32-.443-.329-.713-.007-.112.01-.225.04-.333.02-.05.038-.1.061-.15.151-.308.417-.532.653-.773.089-.062.18-.12.272-.178a1.6 1.6 0 0 0 .522-.532.993.993 0 0 0 .115-.416 1.165 1.165 0 0 0-.102-.367 1.35 1.35 0 0 0-.532-.533l-.103-.037c-.05-.022-.103-.04-.155-.06l-.072-.027a4.96 4.96 0 0 0-.048-.01 1.825 1.825 0 0 1-.598-.392c-.17-.178-.37-.34-.607-.418a.76.76 0 0 0-.608.043c-.148.078-.329.049-.472-.026-.208-.081-.449-.124-.658-.025-.109.038-.177.134-.274.192l-.048.008c-.132.039-.27.045-.402.077l-.078.024a.776.776 0 0 0-.458.431.634.634 0 0 0 .013.433l.011.049c.148.326.404.584.655.833.074.072.137.155.19.245-.01.01-.026.032-.034.042-.22-.13-.388-.325-.57-.5a2.45 2.45 0 0 0-.379-.278 2.383 2.383 0 0 1-.153-.076 2.287 2.287 0 0 1-.047-.012.62.62 0 0 0-.483.023.882.882 0 0 0-.322.323c-.084.174-.09.37-.135.556l-.009.046c-.054.129-.177.213-.216.351l-.029.08c-.01.134-.017.272.027.401.04.155.142.3.117.465-.017.083-.055.159-.09.235-.01.025-.02.05-.029.077-.016.169-.02.346.053.504.085.224.257.395.415.569.19.18.315.418.4.663.052.16.11.321.215.454.125.154.278.287.454.38a.77.77 0 0 0 .544.053c.213-.06.395-.197.546-.355.172-.177.269-.412.439-.59.185-.184.36-.383.585-.518a.998.998 0 0 1 .73-.156c.132.03.26.08.372.156.155.099.294.221.42.354.764.761 1.523 1.527 2.285 2.29-.148.147-.295.297-.445.444a.42.42 0 0 1-.473.07c-.109-.053-.173-.164-.275-.226a.632.632 0 0 0-.573-.046l-.585.243a.618.618 0 0 0-.362.394c-.018.155-.003.32-.068.466a.585.585 0 0 1-.174.17 1.675 1.675 0 0 0-.078.04c-.63.009-1.262.001-1.894.004a.42.42 0 0 1-.416-.313c-.023-.128.005-.264-.042-.388a.63.63 0 0 0-.34-.366l-.598-.248a.628.628 0 0 0-.575.042c-.109.065-.176.185-.295.235a.422.422 0 0 1-.471-.09L4.14 12.627a.422.422 0 0 1-.113-.443.53.53 0 0 1 .158-.22.622.622 0 0 0 .13-.696l-.235-.565a.616.616 0 0 0-.579-.393c-.084 0-.172.002-.25-.035A.418.418 0 0 1 3 9.9c-.002-.594 0-1.189 0-1.783a.422.422 0 0 1 .262-.395c.125-.054.265-.011.394-.047a.626.626 0 0 0 .42-.366c.08-.195.16-.39.242-.584a.632.632 0 0 0-.037-.569c-.063-.11-.185-.176-.237-.295a.421.421 0 0 1 .088-.478c.42-.418.837-.838 1.257-1.256a.419.419 0 0 1 .47-.082c.118.052.184.173.295.237a.63.63 0 0 0 .566.04l.599-.25a.628.628 0 0 0 .355-.415c.035-.132-.01-.278.05-.405Z" clip-rule="evenodd"/>
  </g>
  <defs>
    <linearGradient id="b" x1="0" x2="18" y1="0" y2="18" gradientUnits="userSpaceOnUse">
      <stop stop-color="#4593AC"/>
      <stop offset="1" stop-color="#50B2BE"/>
    </linearGradient>
    <clipPath id="a">
      <path fill="#fff" d="M0 0h18v18H0z"/>
    </clipPath>
  </defs>
</svg>
