<svg xmlns="http://www.w3.org/2000/svg" viewBox="0 0 18 18">
  <g clip-path="url(#a)">
    <path d="M0 0h18v18H0V0Z"/>
    <path fill="#fff" d="M8.884 8.134h-2.21v-.686c0-.432-.02-.703-.063-.812-.042-.109-.141-.163-.299-.163-.136 0-.229.047-.278.14-.049.093-.074.333-.074.719v3.625c0 .339.025.562.074.67.049.107.147.16.294.16.161 0 .27-.06.328-.182.058-.121.086-.357.086-.709V10h-.445V8.853h2.587v4.054h-1.39l-.205-.541a1.46 1.46 0 0 1-.57.525c-.229.116-.5.175-.811.175-.371 0-.719-.08-1.042-.241-.324-.16-.57-.358-.738-.595a1.756 1.756 0 0 1-.315-.744c-.042-.26-.063-.65-.063-1.169V8.073c0-.721.044-1.245.131-1.572.088-.326.339-.626.754-.898.414-.272.95-.408 1.61-.408.646 0 1.183.118 1.61.354.428.237.706.518.835.843.13.324.194.796.194 1.415v.327Z"/>
    <path fill="#FD0000" d="M14.066 7.726h-2.053v-.56c0-.26-.026-.427-.079-.499-.052-.071-.14-.107-.262-.107a.345.345 0 0 0-.302.145c-.068.096-.102.242-.102.438 0 .252.038.442.115.57.074.127.282.28.625.461.984.52 1.603.946 1.858 1.278.256.333.384.87.384 1.61 0 .538-.07.935-.213 1.19-.141.255-.415.469-.821.641-.406.173-.879.259-1.418.259-.591 0-1.096-.1-1.515-.298-.418-.2-.692-.453-.822-.761-.129-.308-.194-.745-.194-1.31v-.495h2.053v.919c0 .283.03.465.086.545.058.082.161.122.308.122s.256-.051.328-.154c.072-.103.108-.255.108-.457 0-.445-.068-.736-.205-.873-.14-.137-.485-.365-1.034-.685-.55-.324-.983-.559-1.161-.705a1.645 1.645 0 0 1-.444-.607c-.117-.258-.176-.587-.176-.989 0-.578.083-1.093.25-1.36.166-.268.434-.477.805-.628.372-.151.889-.226 1.414-.226.573 0 1.063.082 1.467.247.404.165.672.372.803.623.131.25.197.767.197 1.367v.3Z"/>
  </g>
  <defs>
    <clipPath id="a">
      <path fill="#fff" d="M0 0h18v18H0z"/>
    </clipPath>
  </defs>
</svg>
