<svg xmlns="http://www.w3.org/2000/svg" viewBox="0 0 18 18">
  <g clip-path="url(#a)">
    <path fill="#11085B" d="M0 0h18v18H0V0Z"/>
    <g clip-path="url(#b)">
      <path fill="#fff" d="M3.606 10.537V7.508H4.2v.473c.1-.15.242-.276.422-.38a1.15 1.15 0 0 1 .569-.157c.692 0 1.037.417 1.037 1.246v1.847h-.595V8.73c0-.518-.213-.766-.64-.744a.854.854 0 0 0-.406.095.713.713 0 0 0-.285.257.658.658 0 0 0-.105.364v1.835h-.593Z"/>
      <path fill="#FAAE3F" fill-rule="evenodd" d="M4.755 11.82a.16.16 0 1 1 0-.32.16.16 0 0 1 .162.16.16.16 0 0 1-.162.16Zm.829 1.163a.276.276 0 1 1-.001-.553.276.276 0 0 1 0 .553Zm1.073.878a.36.36 0 1 1-.001-.72.36.36 0 0 1 0 .72Z" clip-rule="evenodd"/>
      <path fill="url(c__0)" fill-rule="evenodd" d="M7.897 14.379a.387.387 0 1 1-.001-.775.387.387 0 0 1 0 .775Z" clip-rule="evenodd"/>
      <path fill="url(#d)" fill-rule="evenodd" d="M9.223 14.499a.358.358 0 1 1 0-.717.358.358 0 1 1 0 .717Z" clip-rule="evenodd"/>
      <path fill="url(#e)" fill-rule="evenodd" d="M10.544 14.223a.28.28 0 1 1 0-.56.28.28 0 1 1 0 .56Z" clip-rule="evenodd"/>
      <path fill="url(#f)" fill-rule="evenodd" d="M11.765 13.603a.194.194 0 1 1 0-.388.195.195 0 1 1 0 .388Z" clip-rule="evenodd"/>
      <path fill="url(#g)" fill-rule="evenodd" d="M12.806 12.714a.138.138 0 1 1 0-.276.138.138 0 0 1 0 .276Z" clip-rule="evenodd"/>
      <path fill="url(#h)" fill-rule="evenodd" d="M13.598 11.638a.134.134 0 0 1-.134-.135.133.133 0 1 1 .267 0c0 .074-.06.135-.133.135Z" clip-rule="evenodd"/>
      <path fill="url(#i)" fill-rule="evenodd" d="M14.083 10.428a.17.17 0 1 1 0-.34.17.17 0 1 1 0 .34Z" clip-rule="evenodd"/>
      <path fill="url(#j)" fill-rule="evenodd" d="M14.225 9.17a.239.239 0 1 1 0-.478.239.239 0 0 1 0 .477Z" clip-rule="evenodd"/>
      <path fill="url(#k)" fill-rule="evenodd" d="M14.021 7.93a.316.316 0 1 1-.002-.633.316.316 0 0 1 .002.632Z" clip-rule="evenodd"/>
      <path fill="url(l__0)" fill-rule="evenodd" d="M13.48 6.767a.374.374 0 1 1-.003-.748.374.374 0 0 1 .002.748Z" clip-rule="evenodd"/>
      <path fill="url(#m)" fill-rule="evenodd" d="M12.641 5.767a.409.409 0 1 1 0-.817.409.409 0 0 1 0 .817Z" clip-rule="evenodd"/>
      <path fill="url(#n)" fill-rule="evenodd" d="M11.56 5.013a.44.44 0 1 1-.002-.879.44.44 0 0 1 .002.879Z" clip-rule="evenodd"/>
      <path fill="url(#o)" fill-rule="evenodd" d="M10.315 4.555a.46.46 0 1 1-.002-.919.46.46 0 0 1 .002.919Z" clip-rule="evenodd"/>
      <path fill="url(#p)" fill-rule="evenodd" d="M8.99 4.418a.46.46 0 1 1-.002-.918.46.46 0 0 1 .001.918Z" clip-rule="evenodd"/>
      <path fill="url(#q)" fill-rule="evenodd" d="M7.67 4.604a.435.435 0 1 1 0-.868.435.435 0 1 1 0 .868Z" clip-rule="evenodd"/>
      <path fill="url(#r)" fill-rule="evenodd" d="M6.452 5.098a.38.38 0 1 1-.001-.76.38.38 0 0 1 .001.76Z" clip-rule="evenodd"/>
      <path fill="url(#s)" fill-rule="evenodd" d="M5.421 5.84a.279.279 0 1 1 0-.558.279.279 0 0 1 0 .557Z" clip-rule="evenodd"/>
      <path fill="url(#t)" fill-rule="evenodd" d="M4.641 6.802a.16.16 0 1 1 0-.321.16.16 0 0 1 0 .321Z" clip-rule="evenodd"/>
    </g>
  </g>
  <defs>
    <linearGradient id="c" x1="8.285" x2="7.509" y1="14.016" y2="13.966" gradientUnits="userSpaceOnUse">
      <stop stop-color="#F67532"/>
      <stop offset="1" stop-color="#F99B3B"/>
    </linearGradient>
    <linearGradient id="d" x1="9.582" x2="8.866" y1="14.14" y2="14.14" gradientUnits="userSpaceOnUse">
      <stop stop-color="#EE5926"/>
      <stop offset="1" stop-color="#F25D2A"/>
    </linearGradient>
    <linearGradient id="e" x1="10.775" x2="10.31" y1="13.792" y2="14.097" gradientUnits="userSpaceOnUse">
      <stop stop-color="#EE5926"/>
      <stop offset="1" stop-color="#EE5926"/>
    </linearGradient>
    <linearGradient id="f" x1="11.861" x2="11.68" y1="13.261" y2="13.542" gradientUnits="userSpaceOnUse">
      <stop stop-color="#EE5926"/>
      <stop offset="1" stop-color="#EE5926"/>
    </linearGradient>
    <linearGradient id="g" x1="12.807" x2="12.807" y1="12.436" y2="12.713" gradientUnits="userSpaceOnUse">
      <stop stop-color="#D3523D"/>
      <stop offset="1" stop-color="#D75436"/>
    </linearGradient>
    <linearGradient id="h" x1="13.599" x2="13.599" y1="11.367" y2="11.633" gradientUnits="userSpaceOnUse">
      <stop stop-color="#6B3487"/>
      <stop offset="1" stop-color="#703682"/>
    </linearGradient>
    <linearGradient id="i" x1="14.082" x2="14.082" y1="10.088" y2="10.428" gradientUnits="userSpaceOnUse">
      <stop stop-color="#66368A"/>
      <stop offset="1" stop-color="#693587"/>
    </linearGradient>
    <linearGradient id="j" x1="14.224" x2="14.224" y1="8.692" y2="9.169" gradientUnits="userSpaceOnUse">
      <stop stop-color="#473E8D"/>
      <stop offset="1" stop-color="#523D8C"/>
    </linearGradient>
    <linearGradient id="k" x1="13.963" x2="14.079" y1="7.296" y2="7.929" gradientUnits="userSpaceOnUse">
      <stop stop-color="#294390"/>
      <stop offset="1" stop-color="#36438F"/>
    </linearGradient>
    <linearGradient id="l" x1="13.312" x2="13.641" y1="6.066" y2="6.708" gradientUnits="userSpaceOnUse">
      <stop stop-color="#204093"/>
      <stop offset="1" stop-color="#224295"/>
    </linearGradient>
    <linearGradient id="m" x1="12.308" x2="12.956" y1="5.103" y2="5.599" gradientUnits="userSpaceOnUse">
      <stop stop-color="#204093"/>
      <stop offset="1" stop-color="#204093"/>
    </linearGradient>
    <linearGradient id="n" x1="11.163" x2="11.992" y1="4.409" y2="4.747" gradientUnits="userSpaceOnUse">
      <stop stop-color="#1C4A9D"/>
      <stop offset="1" stop-color="#204093"/>
    </linearGradient>
    <linearGradient id="o" x1="10.777" x2="9.856" y1="4.124" y2="4.067" gradientUnits="userSpaceOnUse">
      <stop stop-color="#204093"/>
      <stop offset="1" stop-color="#116AB6"/>
    </linearGradient>
    <linearGradient id="p" x1="8.529" x2="9.447" y1="3.958" y2="3.958" gradientUnits="userSpaceOnUse">
      <stop stop-color="#078CD1"/>
      <stop offset="1" stop-color="#0B75C0"/>
    </linearGradient>
    <linearGradient id="q" x1="8.108" x2="7.237" y1="4.077" y2="4.261" gradientUnits="userSpaceOnUse">
      <stop stop-color="#0197D9"/>
      <stop offset="1" stop-color="#02A9E8"/>
    </linearGradient>
    <linearGradient id="r" x1="6.157" x2="6.749" y1="4.95" y2="4.482" gradientUnits="userSpaceOnUse">
      <stop stop-color="#00B6F0"/>
      <stop offset="1" stop-color="#00AFEC"/>
    </linearGradient>
    <linearGradient id="s" x1="5.529" x2="5.293" y1="5.328" y2="5.834" gradientUnits="userSpaceOnUse">
      <stop stop-color="#02B1EE"/>
      <stop offset="1" stop-color="#00B6F0"/>
    </linearGradient>
    <linearGradient id="t" x1="4.481" x2="4.8" y1="6.642" y2="6.642" gradientUnits="userSpaceOnUse">
      <stop stop-color="#00B6F0"/>
      <stop offset="1" stop-color="#00B6F0"/>
    </linearGradient>
    <clipPath id="a">
      <path fill="#fff" d="M0 0h18v18H0z"/>
    </clipPath>
    <clipPath id="b">
      <path fill="#fff" d="M3.6 3.5h10.87v11H3.6z"/>
    </clipPath>
  </defs>
</svg>
