<svg xmlns="http://www.w3.org/2000/svg" viewBox="0 0 18 18">
  <g clip-path="url(#a)">
    <path d="M0 0h18v18H0V0Z"/>
    <path fill="#fff" d="m4.782 12.795 1.672-1.447c.869.675 1.801 1.061 2.895 1.061.965 0 1.544-.386 1.544-.997v-.032c0-.611-.354-.9-2.155-1.35C6.583 9.481 5.2 8.87 5.2 6.748v-.033C5.2 4.786 6.744 3.5 8.93 3.5c1.545 0 2.895.482 3.957 1.35l-1.705 1.448c-.772-.45-1.544-.74-2.316-.74-.9 0-1.383.419-1.383.933v.032c0 .708.45.933 2.316 1.416 2.155.579 3.377 1.35 3.377 3.216v.032c0 2.123-1.608 3.313-3.924 3.313a6.718 6.718 0 0 1-4.47-1.705Z"/>
  </g>
  <defs>
    <clipPath id="a">
      <path fill="#fff" d="M0 0h18v18H0z"/>
    </clipPath>
  </defs>
</svg>
