<svg xmlns="http://www.w3.org/2000/svg" viewBox="0 0 18 18">
  <g clip-path="url(#a)">
    <path fill="#4183E1" d="M0 0h18v18H0V0Z"/>
    <path fill="#fff" d="m12.03 13.386-.797-1.025a.342.342 0 0 0-.27-.122H7.037a.34.34 0 0 0-.27.122l-.797 1.025a.177.177 0 0 0-.04.11v.156c0 .052.044.094.098.094h5.942a.096.096 0 0 0 .097-.094v-.157a.177.177 0 0 0-.038-.109Zm-1.552-5.379c0-2.263-.4-3.2-1.498-3.2-.969 0-1.458.657-1.458 2.94 0 2.252.38 3.18 1.498 3.18.989 0 1.458-.647 1.458-2.92ZM5.625 7.95c0-2.543 1.807-3.55 3.415-3.55 1.717 0 3.335.997 3.335 3.395 0 2.563-1.807 3.54-3.415 3.54-1.717 0-3.335-1.064-3.335-3.385Z"/>
  </g>
  <defs>
    <clipPath id="a">
      <path fill="#fff" d="M0 0h18v18H0z"/>
    </clipPath>
  </defs>
</svg>
